<svg xmlns="http://www.w3.org/2000/svg" viewBox="0 0 396 88" role="img" aria-labelledby="title description">
  <title id="title">FUTURE G</title>
  <desc id="description">Símbolo G geométrico azul e nome FUTURE G para fundos escuros.</desc>
  <defs>
    <linearGradient id="gradient" x1="8" y1="8" x2="64" y2="72" gradientUnits="userSpaceOnUse">
      <stop stop-color="#BFDBFE"/>
      <stop offset="0.5" stop-color="#60A5FA"/>
      <stop offset="1" stop-color="#2563EB"/>
    </linearGradient>
  </defs>
  <g transform="translate(8 8)">
    <path fill="url(#gradient)" d="M18 0h34a7 7 0 0 1 7 7v5H23a5 5 0 0 0-5 5v28a5 5 0 0 0 5 5h32V40H38a6 6 0 0 1 0-12h28v26a7 7 0 0 1-7 7H18A12 12 0 0 1 6 49V12A12 12 0 0 1 18 0Z"/>
    <rect x="25" y="18" width="12" height="12" rx="3.5" fill="#DBEAFE"/>
  </g>
  <text x="91" y="54" fill="#FFFFFF" font-family="Inter, Arial, sans-serif" font-size="38" font-weight="750" letter-spacing="-1.2">FUTURE G</text>
  <text x="94" y="73" fill="#A8B8CC" font-family="Inter, Arial, sans-serif" font-size="10" font-weight="600" letter-spacing="2.1">DADOS SINTÉTICOS PARA QA</text>
</svg>
